<?xml version="1.0" encoding="UTF-8" standalone="no"?>
<!DOCTYPE svg PUBLIC "-//W3C//DTD SVG 1.1//EN" "http://www.w3.org/Graphics/SVG/1.1/DTD/svg11.dtd">
<svg width="100%" height="100%" viewBox="0 0 859 184" version="1.1" xmlns="http://www.w3.org/2000/svg" xmlns:xlink="http://www.w3.org/1999/xlink" xml:space="preserve" xmlns:serif="http://www.serif.com/" style="fill-rule:evenodd;clip-rule:evenodd;stroke-linejoin:round;stroke-miterlimit:2;">
    <g transform="matrix(1,0,0,1,-3433,0)">
        <g id="Logo-prata" serif:id="Logo prata" transform="matrix(1.03027,0,0,1.09644,-117.072,-862.551)">
            <rect x="3446.13" y="786.684" width="833.187" height="167.398" style="fill:none;"/>
            <g transform="matrix(1.95141,0,0,1.83366,3118.42,22.843)">
                <path d="M306.578,483.593L266.469,483.593L266.469,420.922L276.049,420.922L276.049,475.177L306.578,475.177L306.578,483.593ZM341.315,465.06L350.806,465.06C349.463,477.595 342.3,484.936 329.229,484.936C314.099,484.936 305.951,475.804 305.951,461.211C305.951,446.617 313.83,437.485 328.423,437.485C342.032,437.485 348.836,445.722 348.836,459.957L315.352,459.957C315.352,469.985 317.769,476.878 329.139,476.878C337.108,476.878 340.51,472.939 341.315,465.06ZM316.247,453.959L338.988,453.959C338.898,448.856 335.496,445.364 328.513,445.364C321.619,445.364 317.769,448.229 316.247,453.959ZM398.972,447.244L384.916,444.2L384.916,445.991C390.915,447.244 394.854,450.019 394.854,457.54C394.854,467.299 387.781,472.133 374.083,472.133L369.875,472.133C363.787,472.223 362.086,472.76 362.086,474.461C362.086,476.162 363.698,476.699 368.443,476.699L380.171,476.699C392.705,476.789 397.719,481.802 397.719,490.487C397.719,499.082 392.705,504.185 380.171,504.185L369.517,504.185C356.177,504.185 350.716,499.619 350.716,491.74C350.716,484.578 355.551,480.728 366.563,480.728L366.563,478.937C355.64,478.937 352.507,477.863 352.507,474.371C352.507,470.611 354.924,469.447 367.369,469.447L367.369,467.657C356.535,467.657 351.074,462.375 351.074,454.227C351.074,444.111 358.505,438.828 372.83,438.828L398.972,438.828L398.972,447.244ZM360.743,455.839C360.743,461.39 364.145,464.434 373.277,464.434C382.051,464.434 385.901,461.658 385.901,455.839C385.901,449.93 382.051,447.244 373.277,447.244C364.593,447.244 360.743,449.93 360.743,455.839ZM379.365,483.056L369.696,483.056C363.161,483.056 360.385,484.757 360.385,489.412C360.385,494.068 363.429,495.769 369.696,495.769L379.365,495.769C385.185,495.769 388.05,494.068 388.05,489.412C388.05,484.757 385.364,483.056 379.365,483.056ZM425.204,438.828C432.546,438.828 436.664,442.857 436.664,450.199L436.664,473.208C436.664,475.714 436.843,476.341 439.35,475.893L444.453,474.998L444.453,483.593L439.082,483.593C432.635,483.593 428.786,479.743 428.786,474.192L426.995,474.192C425.115,481.355 420.37,484.936 412.76,484.936C402.733,484.846 397.361,479.654 397.361,471.417C397.361,462.016 403.449,457.182 415.983,457.182L426.995,457.182L426.995,449.035C426.995,446.528 426.816,446.17 424.309,446.349L400.852,447.781L400.852,438.828L425.204,438.828ZM415.535,476.878C423.145,476.878 426.995,472.581 426.995,464.165L426.995,462.912L416.789,462.822C410.164,462.822 407.03,465.06 407.03,470.074C407.03,474.461 409.716,476.878 415.535,476.878ZM452.959,461.121C452.959,471.417 457.256,476.878 466.836,476.878C474.804,476.878 478.833,472.849 478.922,465.419L488.412,465.419C487.965,477.595 480.176,484.936 466.836,484.936C451.884,484.936 443.558,475.893 443.558,461.121C443.558,446.438 451.437,437.485 465.582,437.485C478.295,437.485 485.547,444.558 485.995,456.376L476.594,456.376C476.505,449.214 472.834,445.543 465.582,445.543C456.898,445.543 452.959,450.915 452.959,461.121ZM497.992,483.593L485.726,438.828L495.306,438.828L506.945,482.25L508.825,482.25L520.553,438.828L530.133,438.828L516.435,488.159C514.286,496.217 509.989,501.767 501.125,502.484L486.532,503.737L486.532,494.157L502.558,494.426C505.065,494.426 505.333,494.247 505.96,491.83L508.467,483.593L497.992,483.593ZM537.694,455.977C539.561,455.977 541.016,456.618 542.058,457.902C543.1,459.186 543.446,460.745 543.096,462.579C542.946,463.179 542.846,463.554 542.796,463.704L532.843,463.704C532.859,464.671 533.176,465.404 533.793,465.905C534.41,466.405 535.218,466.655 536.219,466.655C537.702,466.655 538.878,466.13 539.745,465.079L541.72,466.58C540.353,468.28 538.444,469.131 535.993,469.131C533.976,469.131 532.434,468.472 531.367,467.155C530.3,465.838 529.925,464.221 530.242,462.303C530.558,460.47 531.417,458.957 532.817,457.765C534.218,456.573 535.843,455.977 537.694,455.977ZM533.218,461.478L540.545,461.478C540.562,460.445 540.291,459.678 539.732,459.178C539.174,458.677 538.436,458.427 537.519,458.427C536.535,458.427 535.664,458.698 534.906,459.24C534.147,459.782 533.584,460.528 533.218,461.478ZM549.122,469.131C547.222,469.131 545.73,468.464 544.646,467.13C543.562,465.796 543.179,464.179 543.496,462.278C543.812,460.445 544.675,458.936 546.084,457.752C547.493,456.568 549.139,455.977 551.023,455.977C552.29,455.977 553.378,456.268 554.286,456.852C555.195,457.435 555.841,458.227 556.225,459.228L553.799,460.478C553.315,459.244 552.307,458.627 550.773,458.627C549.656,458.627 548.664,458.986 547.797,459.703C546.93,460.42 546.397,461.345 546.197,462.479C546.013,463.612 546.222,464.563 546.822,465.329C547.422,466.096 548.281,466.48 549.398,466.48C550.131,466.48 550.81,466.305 551.436,465.955C552.061,465.604 552.573,465.129 552.974,464.529L555.149,465.93C554.516,466.963 553.665,467.755 552.598,468.305C551.531,468.855 550.373,469.131 549.122,469.131ZM561.251,469.131C559.284,469.131 557.758,468.46 556.675,467.117C555.591,465.775 555.233,464.146 555.599,462.228C555.949,460.378 556.841,458.873 558.275,457.715C559.709,456.556 561.359,455.977 563.227,455.977C565.077,455.977 566.536,456.643 567.603,457.977C568.67,459.311 569.037,460.92 568.703,462.804C568.37,464.671 567.49,466.192 566.065,467.368C564.64,468.543 563.035,469.131 561.251,469.131ZM561.451,466.505C562.535,466.505 563.514,466.146 564.39,465.429C565.265,464.713 565.811,463.737 566.028,462.504C566.244,461.32 566.036,460.374 565.402,459.665C564.769,458.957 563.919,458.602 562.852,458.602C561.768,458.602 560.793,458.957 559.926,459.665C559.059,460.374 558.517,461.337 558.3,462.554C558.1,463.771 558.309,464.733 558.925,465.442C559.542,466.15 560.384,466.505 561.451,466.505ZM584.683,455.977C586.067,455.977 587.13,456.443 587.872,457.377C588.614,458.31 588.851,459.535 588.584,461.052L587.234,468.805L584.533,468.805L585.859,461.23C586.009,460.363 585.909,459.691 585.558,459.216C585.208,458.74 584.65,458.502 583.883,458.502C583.099,458.502 582.416,458.761 581.832,459.277C581.249,459.794 580.857,460.577 580.657,461.627L579.382,468.805L576.681,468.805L578.006,461.23C578.156,460.363 578.069,459.691 577.744,459.216C577.418,458.74 576.881,458.502 576.131,458.502C575.38,458.502 574.709,458.741 574.117,459.219C573.526,459.697 573.105,460.414 572.855,461.37L571.554,468.805L568.853,468.805L571.054,456.302L573.755,456.302L573.505,457.679C574.538,456.544 575.797,455.977 577.281,455.977C578.898,455.977 579.982,456.643 580.532,457.977C581.616,456.643 582.999,455.977 584.683,455.977Z" style="fill:url(#_Linear1);"/>
            </g>
            <g transform="matrix(0.707433,0,0,0.664743,3146.22,496.401)">
                <path d="M441.42,477.56C441.42,477.094 442.212,476.12 442.53,476.12L638.28,476.12C638.86,476.087 639.127,476.31 639.08,476.79L639.36,520.72C638.885,520.72 638.06,520.68 637.88,520.68C606.94,520.72 576.81,520.72 547.49,520.68C547.49,520.68 547.49,520.68 547.49,520.68C547.396,520.68 487.764,519.946 487.691,519.887C487.243,519.52 527.935,521.456 553.901,540.425C586.221,564.035 595.129,586.718 595.79,613.14C595.798,613.462 595.912,614.588 595.912,614.588L549.328,614.67C549.328,614.67 549.099,613.419 549.075,613.096C549.074,613.081 549.072,613.065 549.07,613.05C541.42,562.25 505.62,526.61 454.19,521.36C450.39,520.967 446.533,520.73 442.62,520.65C442.617,520.65 442.513,520.644 441.99,520.658C441.99,520.658 441.99,520.659 441.99,520.659L441.42,477.56Z" style="fill:white;fill-rule:nonzero;"/>
            </g>
        </g>
    </g>
    <defs>
        <linearGradient id="_Linear1" x1="0" y1="0" x2="1" y2="0" gradientUnits="userSpaceOnUse" gradientTransform="matrix(231.994,-29.4058,29.4058,231.994,362.906,472.79)"><stop offset="0" style="stop-color:white;stop-opacity:1"/><stop offset="1" style="stop-color:rgb(179,179,179);stop-opacity:1"/></linearGradient>
    </defs>
</svg>
